<svg xmlns="http://www.w3.org/2000/svg" width="182.586" height="181.718" viewBox="0 0 182.586 181.718">
  <path id="path874" d="M-203.362,1613.049c-2.88-.515-14.807-4.194-26.5-8.176s-22.005-7.283-22.905-7.336c-1.535-.089-1.649.126-1.839,3.484a11.412,11.412,0,0,1-.9,4.417c-.969,1.168-34.579,1.217-35.744.052-.589-.589-.785-8.819-.785-33.011v-32.227l1.454-1.018c1.221-.855,4.043-1.019,17.568-1.019,14.78,0,16.2.1,17.2,1.2a5.386,5.386,0,0,1,1.093,3.108,6.4,6.4,0,0,0,.491,2.651c.322.5,5.122.838,14.551,1.04,13.174.28,14.4.412,19.258,2.076,4.8,1.643,13.152,6.509,18.744,10.915l2.335,1.84,13.094.2c12.965.2,13.121.22,15.753,1.964a11.83,11.83,0,0,1,3.876,4.4c.67,1.452,1.562,2.647,1.982,2.656s7.047-2.11,14.725-4.708c13.4-4.534,14.21-4.726,20.177-4.744,5.7-.025,6.513.144,9.774,1.944,4.925,2.719,10.514,7.93,10.514,9.8,0,1.949.109,1.875-12.434,8.4-5.939,3.089-14.627,7.694-19.306,10.234-11.713,6.357-34.574,17.833-38.939,19.546-4.41,1.73-12.331,3.418-15.586,3.321a72.223,72.223,0,0,1-7.647-1.008Zm17.82-8.476c7.2-2.41,19.07-8.15,42.061-20.344,10.978-5.823,20.778-10.952,21.777-11.4,2.336-1.044,2.026-1.816-1.474-3.667-4.964-2.625-7.851-2.184-26.5,4.035-11.618,3.875-17.514,6.182-19.652,7.689l-3.054,2.154-24.558.185c-17.882.136-24.806-.024-25.471-.571-1.148-.953-1.189-4.135-.066-5.066.559-.464,8.822-.77,24.273-.9l23.426-.2,1.25-1.545c1.62-2,1.582-3.514-.125-5.062-1.235-1.119-2.8-1.28-15.216-1.574l-13.84-.327-4.358-3.6c-5.467-4.515-10.773-7.734-15.519-9.415-3.1-1.1-5.835-1.346-17.345-1.574-11-.217-13.772-.1-14.224.615-.7,1.111-.747,33.314-.046,34.419.53.833,22.854,8.745,37.422,13.261,16.328,5.062,22.9,5.667,31.235,2.876Zm-76.391-32v-27.159h-22.905v26.723c0,14.7.2,26.918.436,27.158s5.394.436,11.453.436h11.016Zm105.325-20.655c-2.079-2.079-1.357-3.886,2.658-6.651a62.829,62.829,0,0,0,23.638-31.911c1.959-6.155,2.469-21.532.943-28.393-1.754-7.882-5.611-16.688-8.636-19.713-.99-.99-1.222-.808-3.108,2.438-3.021,5.2-4.911,7.474-7.88,9.49-2.385,1.619-3.254,1.814-8.229,1.836-3.948.025-6.168.349-7.647,1.14l-2.084,1.115,1.531,3.768c1.589,3.913,2.64,4.666,4.856,3.48,1.983-1.062,4.32.331,6.059,3.61,1.377,2.594,1.427,3.03.615,5.315-.983,2.768-4.182,7.393-8.418,12.174l-2.8,3.157,1.325,1.861c2.86,4.018,1.181,8.278-4.914,12.472-1.973,1.357-2.956,2.571-3.281,4.052-1.548,7.05-8.258,11.639-17.016,11.639-5.364,0-7.063-1.4-10.439-8.594-2.857-6.088-3.319-10.353-1.434-13.229,1.559-2.379,1.436-2.9-1.51-6.393q-2.618-3.105-2.618-5.012c0-3.256-1.792-4.209-7.642-4.066-8.384.206-9.156.089-11.31-1.723s-3.628-4.724-4.6-9.059c-.821-3.656,1.961-17.3,4.225-20.721,2.953-4.462,10.663-7.695,18.481-7.748,4.052-.027,6.222.818,9.522,3.712,2.807,2.462,3.253,2.515,9.772,1.156,5.605-1.167,6.556-2.1,6.289-6.2l-.192-2.945-3.958-.327c-6.007-.5-8.709-2.869-9.782-8.588-.663-3.532.937-6.552,5.164-9.742,2.01-1.517,3.48-3.04,3.267-3.385-.228-.368-2.175-.448-4.738-.193-25.106,2.494-44.878,19.744-51.147,44.625-1.616,6.415-1.749,17.823-.281,24.152,1.214,5.235,3.486,12.105,4.293,12.979,1.012,1.1.671,5.419-.461,5.853-2.112.81-4.184.375-5.121-1.076-1.421-2.2-4.218-9.982-5.461-15.2-1.671-7.008-1.5-21.936.34-28.958,5.858-22.405,22.282-40.208,43.018-46.628,10.277-3.181,19.59-3.931,29.122-2.344,22.226,3.7,39.7,16.748,49.118,36.681,4.7,9.941,5.537,14.2,5.478,27.813-.046,10.474-.2,11.944-1.8,17.2a66.012,66.012,0,0,1-16.75,28.029c-4.792,4.822-12.414,10.393-14.219,10.393a4.476,4.476,0,0,1-2.229-1.349Zm-26.42-17.279c2.464-1.029,3.729-3.246,4.5-7.877.388-2.342.844-2.859,4.317-4.908,2.136-1.26,3.888-2.539,3.893-2.842a6.51,6.51,0,0,0-1.3-2.215c-2.554-3.247-1.85-5.261,4.284-12.264,3.076-3.511,5.482-6.719,5.345-7.127s-1.3-.915-2.592-1.124c-3.86-.628-5.318-2.025-6.61-6.337a14.215,14.215,0,0,0-3.093-5.767c-3.607-3.455-2.1-6.5,4.857-9.836,4.126-1.978,5.247-2.225,10.059-2.225,5.256,0,5.489-.067,7.916-2.259,2.4-2.171,4.189-5.113,6.267-10.323l.972-2.437-3.7-3.3c-7.462-6.65-17.427-11.568-21.969-10.841a56,56,0,0,0-14.985,5.94c-2.736,1.863-3.093,3.462-1.162,5.209,1.1,1,1.573,1.053,3.195.381,2.976-1.233,5.974-.646,7.556,1.479,1.136,1.527,1.413,2.992,1.6,8.472.255,7.388-.569,11.314-2.5,11.928a124.885,124.885,0,0,1-12.776,2.321c-5.812.85-9.322-.025-12.259-3.046-2.388-2.458-4.768-2.808-10.049-1.478-5.5,1.386-10.086,9.581-10.086,18.038,0,5.663.357,5.915,8.835,6.244,5.1.2,7.829.608,9.355,1.4,2.335,1.219,4.709,4.543,4.713,6.6,0,.7,1.237,3.041,2.746,5.192,2.259,3.22,2.742,4.439,2.733,6.9a13.413,13.413,0,0,1-1.149,5.164c-1.392,2.66-1.013,4.784,1.585,8.88,1.759,2.774,2.125,3.016,4.566,3.016a15.355,15.355,0,0,0,4.946-.958Z" transform="translate(292.037 -1432.342)"/>
</svg>
