<svg xmlns="http://www.w3.org/2000/svg" width="225.662" height="225.583" viewBox="0 0 225.662 225.583">
  <path id="path878" d="M-291.851,1432.964c-24.98-4.279-45.605-15.186-63.336-33.494-17.575-18.148-26.918-37.044-31.011-62.718-5.239-32.862,6.591-69.135,30.564-93.714a115.217,115.217,0,0,1,56.143-32.212c8.07-2,10.257-2.2,24.655-2.223,19.186-.037,27.871,1.559,43.21,7.936,35.09,14.587,59.854,44.381,68.417,82.314,1.978,8.76,1.918,35.881-.1,44.98-9.139,41.231-39.956,74.533-79.525,85.937-15.081,4.347-34.791,5.631-49.018,3.194Zm30.809-8.547c8.843-1.084,9.7-1.375,9.7-3.294,0-1.878-7.325-16.93-8.239-16.93-.344,0-3.461,2.3-6.928,5.118s-9.365,7.258-13.106,9.873c-5.648,3.948-6.542,4.857-5.266,5.358,2.3.9,16.04.831,23.838-.126Zm-30.343-8.037c9.832-6.539,18.774-13.178,23.889-17.735l3.6-3.205-1.735-2.308c-1.547-2.057-2.163-2.283-5.671-2.082-8.577.491-16.188-3.441-19.283-9.964-1.662-3.5-3.829-4.431-10.43-4.47-2.756,0-10.3-.723-16.759-1.571l-11.748-1.542-2.836,3.189c-2.788,3.136-7.385,5.625-10.386,5.625-2.193,0-7.564,8.785-6.54,10.7,1.839,3.436,16.218,14.524,25.913,19.981,4.566,2.57,20.49,8.95,22.455,9,.582,0,4.873-2.511,9.535-5.612Zm59.393-.205c19.531-8.551,38.664-25.773,47.958-43.169,1.515-2.836,2.546-5.367,2.29-5.622s-4.079.414-8.5,1.488-10.766,2.381-14.108,2.9-6.861,1.1-7.82,1.287c-1,.193-2.625,1.84-3.818,3.874-5.189,8.854-13.353,11.957-23.66,8.993-1.335-.384-2.793.77-7.2,5.694l-5.527,6.176,4.495,9.071c2.472,4.99,4.735,9.892,5.027,10.895s1.1,1.823,1.8,1.823,4.774-1.535,9.06-3.412Zm-20.222-31.768c5.239-5.3,5.158-6.951-.342-6.951-2.786,0-3.823.35-4.208,1.418a21.136,21.136,0,0,1-2.075,3.673c-1.458,2.1-1.475,2.391-.254,4.254.72,1.1,1.586,2,1.926,2s2.568-1.977,4.954-4.392Zm-101.975-2.967,1.778-2.5-1.782-2.409a14.35,14.35,0,0,1-2.238-5.219c-.251-1.545-.769-3-1.151-3.239-1.667-1.03-9.272-2.6-9.854-2.034-1.108,1.079,9.05,17.9,10.809,17.9.362,0,1.459-1.124,2.437-2.5Zm84.19-.159a13.08,13.08,0,0,0,3.848-3.754c5.769-8.561-4.358-18.522-13.292-13.075-3.125,1.905-4.468,4.225-4.468,7.719,0,7.457,7.488,12.36,13.911,9.11Zm42.075-4.189c5.486-2.836,6.653-9.783,2.449-14.572-3.037-3.458-6.6-4.322-10.727-2.6-3.186,1.332-6.217,5.452-6.222,8.459-.012,7.018,8.217,11.96,14.5,8.711Zm-112.154-4.788c1.756-1.285,2.019-5.486.461-7.363-1.35-1.627-5.232-1.618-6.865.03-4.165,4.165,1.643,10.83,6.4,7.348Zm49.01-7.135,1.63-3.375-3.157-3a245.6,245.6,0,0,0-19.884-16.439l-3.209-2.142-2.057,1.938a23.534,23.534,0,0,1-10.686,5.629c-3.7.694-4.391,1.576-5.019,6.4-.436,3.346-.209,4.278,1.711,7.029,2.455,3.516,3.814,3.9,20.443,5.7,19.6,2.13,18.306,2.241,20.228-1.736Zm40.587.135a17.288,17.288,0,0,1,5.348-9.82c4.6-4.247,6.685-5.1,12.338-5.05a47.487,47.487,0,0,1,6.5.37c1.288.361,9.763-13.272,9.781-15.734.006-.81-1.165-2.872-2.6-4.583a30.4,30.4,0,0,1-4.287-7.843l-1.676-4.733-8.068-2.621c-17.718-5.756-31.573-14.348-45.392-28.148l-8.966-8.955-4,.678c-12.774,2.166-24.412-5.4-27.153-17.648l-.989-4.419-5.347-1.716a141.569,141.569,0,0,1-13.276-5.433l-7.929-3.717-3.212,3.136c-1.766,1.726-3.211,3.543-3.211,4.041s2.349,4.815,5.219,9.6a128.337,128.337,0,0,1,13.361,31.707c1.712,6.581,3.084,8.5,6.083,8.515,2.984,0,10.174,4.8,12.8,8.527,3.678,5.218,4.932,9.59,4.455,15.532l-.405,5.048,5.779,4.369c3.178,2.4,9.011,7.246,12.962,10.761,10.128,9.014,9.4,8.612,13.791,7.629a20.987,20.987,0,0,1,12.814,1.309c3.3,1.663,7.755,6.6,8.792,9.744.821,2.486,1.2,2.764,3.467,2.543,2.213-.214,2.608-.619,3.018-3.084Zm47.349-2.851c4.01-.69,11.656-2.246,16.989-3.456l9.7-2.2,1.414-3.807c2.487-6.7,4.714-19.9,4.714-27.95v-7.681l-3.444.57c-4.55.753-4.517.724-5.584,4.959-1.357,5.388-6.174,11.017-11.79,13.774-3.873,1.9-5.76,2.312-10.675,2.318h-5.971l-5.046,8.882-5.046,8.882,1.981,3.946c1.654,3.292,2.27,3.868,3.725,3.479.959-.258,5.025-1.031,9.035-1.722Zm-147.142-5.824a11.046,11.046,0,0,1,4.984-1.858c1.782,0,2.419-.52,3.128-2.552,1.361-3.905,1.129-4.584-2.149-6.276a23.03,23.03,0,0,1-12.338-20.157c-.021-5.954.6-5.524-12.065-8.38-7.19-1.622-8.4-1.713-9.054-.686-1.748,2.764-.428,17.673,2.68,30.271,1.652,6.7,1.965,7.286,4.4,8.305,3.727,1.557,15.885,4.187,16.852,3.645.446-.251,2.046-1.29,3.557-2.312Zm24.947-19.589c8.471-6.136,8.075-18.115-.788-23.863-6.094-3.952-15.1-2.26-19.286,3.623-3.557,5-2.89,14.594,1.287,18.518,3.281,3.083,5.45,3.9,10.62,3.978C-329.264,1339.365-328.09,1339.04-325.328,1337.041Zm127.639-7.422a14.064,14.064,0,0,0,6.963-23.1c-5.737-6.534-14.187-6.887-20.782-.869-4.456,4.066-5.519,12.2-2.268,17.353,2.4,3.807,3.772,4.944,7.6,6.308,3.743,1.335,4.68,1.37,8.49.312ZM-343.907,1304.2c1.448-.728,2.633-1.685,2.633-2.128,0-2.115-3.63-13.961-6.127-19.992-4.167-10.065-10.139-20.482-11.743-20.482-1.712,0-10.544,16.639-13.546,25.521-2.462,7.283-4.388,15.517-4.092,17.489.228,1.514,1.62,2.1,10.39,4.342,5.57,1.427,10.674,2.8,11.343,3.047.738.275,2.646-.907,4.861-3.011a34.423,34.423,0,0,1,6.279-4.785Zm172.3,3.567c2.42-2.416-8.958-37.073-12.021-36.617-.412.062-1.587,4.044-2.611,8.851s-2.21,10.156-2.635,11.888c-.755,3.078-.682,3.238,3.195,7.014a26.9,26.9,0,0,1,5.328,7.265c1.352,3.38,1.381,3.4,4.682,2.87a10.8,10.8,0,0,0,4.062-1.27Zm-50.664-2.216a29.765,29.765,0,0,1,10.688-10.758,28.423,28.423,0,0,1,7.918-2.053c2.762-.313,5.211-.875,5.443-1.25.691-1.119,3.544-12.477,5.237-20.854,2.543-12.578,2.7-12.017-5.9-20.94-6.714-6.967-16.127-14.836-17.747-14.836a47.887,47.887,0,0,0-6.522,4.435c-6.656,4.994-21.074,12.5-29,15.106-2.9.951-8.682,2.521-12.857,3.489l-7.591,1.76-1.464,3.856a31.225,31.225,0,0,1-3.49,6.513c-1.943,2.547-1.971,2.74-.668,4.682,2.935,4.375,14.487,14.8,22.019,19.878,7.959,5.362,26.893,13.791,31.379,13.969.548.031,1.7-1.328,2.554-3Zm-67.187-36.644a14.358,14.358,0,0,0,4.374-21.886c-2.94-3.494-6.011-4.869-10.872-4.869a14,14,0,0,0-12.374,6.718c-2.473,3.813-2.921,9.726-1.015,13.375a22.48,22.48,0,0,0,7.364,7.321C-299.358,1271.011-292.918,1270.673-289.456,1268.907Zm26.779-20.558A131.792,131.792,0,0,0-249.7,1243.9c9.944-4.16,24.29-12.8,24.29-14.635,0-1.906-21.382-9.191-32.408-11.04-7.825-1.313-23.933-1.55-29.735-.439-2.139.41-6.207,1.2-9.042,1.75l-5.154,1.005.554,4.894c.815,7.2,1.121,7.525,7.5,7.981a26.717,26.717,0,0,1,8.011,1.69c3.915,2.024,9.674,8.349,10.851,11.915,1.3,3.946,2.317,4.057,12.158,1.333Zm-53.152-4.112a26.7,26.7,0,0,1,4.976-5.955l2.874-2.369-1.318-5.793c-.919-4.039-1.687-5.793-2.539-5.793-1.812,0-15.4,6.922-20.524,10.454-2.451,1.69-4.563,3.618-4.694,4.285-.157.8,1.474,1.981,4.813,3.479,4.976,2.233,12.743,5.192,13.779,5.249C-318.171,1247.794-316.986,1246.21-315.83,1244.237Z" transform="translate(387.422 -1208.602)"/>
</svg>
