<svg xmlns="http://www.w3.org/2000/svg" width="313.655" height="225.583" viewBox="0 0 313.655 225.583">
  <path id="path878" d="M-375.141,1442.847c-2.027-3.093-1.877-3.549,21.538-65.386,9.337-24.659,11.119-29.9,10.408-30.611-.364-.362-19.784,7.01-43.156,16.385s-43.144,17.046-43.937,17.046-15.459-14.028-32.59-31.174c-28.005-28.029-31.148-31.544-31.148-34.844,0-4.236-2.454-2.836,28.422-16.219,11.6-5.028,21.885-9.142,22.858-9.142s9.972,4.108,20,9.128c14.37,7.2,18.913,8.991,21.464,8.481,2.745-.549,21.7-8.533,43.2-18.193,3.1-1.395,6.839-2.9,8.3-3.347,2.237-.682,2.418-1.052,1.128-2.311-.845-.823-17.02-7.9-35.944-15.738s-35.55-14.987-36.946-15.9c-2.886-1.885-3.473-7.323-1.011-9.366,2.257-1.874,50.246-21.571,52.553-21.571,1.086,0,21.105,7.9,44.486,17.552,31.057,12.823,43.186,17.343,45.019,16.774,2.424-.752,15.2-6.312,29.944-13.028,3.921-1.786,7.333-3.248,7.581-3.248s3.386-1.3,6.972-2.885,7.535-3.327,8.776-3.869c12.66-5.528,25.519-3.513,35.933,5.631,5.872,5.156,10.838,15.941,10.872,23.613.03,6.285-3.74,15.968-8.175,21.006-5.552,6.308-7.709,7.407-32.99,16.813-11.168,4.155-24.488,9.123-29.6,11.041l-9.293,3.485-26.243,52.407-26.243,52.407L-340.6,1431.7c-15.2,7.656-28.77,13.94-30.151,13.965-1.479.043-3.285-1.134-4.39-2.821Zm36.318-25.619,16.462-8.179,26.7-52.982,26.7-52.983,7.9-3.024c4.343-1.663,13.989-5.307,21.434-8.1,41.761-15.653,39.9-14.777,43.276-20.379,5.938-9.855,2.409-23.132-7.577-28.5-9.069-4.878-10.357-4.449-82.516,27.492-7.756,3.433-19.178,8.411-25.383,11.06s-16.1,6.938-22,9.528-15.794,6.876-22,9.523-13.566,5.868-16.358,7.154c-13.1,6.039-29.263,12.654-30.914,12.654-1.006,0-9.939-4.062-19.852-9.025s-18.719-9.025-19.568-9.025c-1.494,0-33.476,13.184-34.524,14.231-.9.9,47.788,48.944,49.61,48.944,1.468,0,28.365-10.25,35.506-13.532,7.537-3.463,60.144-23.7,61.611-23.7,2.806,0,5.864,4.1,5.224,7.01-.68,3.094-4.628,13.842-20.451,55.673-6.586,17.412-11.976,32.262-11.976,33,0,2.237,1.624,1.643,18.7-6.841Zm24.04-147.784c7.472-3.259,13.6-6.431,13.622-7.052.03-.943-41.058-18.678-61.809-26.678-7.244-2.793-8.6-2.577-24.4,3.875-12.441,5.08-14.952,6.953-11.138,8.307,3.154,1.12,36.431,14.984,55.09,22.949,5.584,2.385,11.255,4.377,12.6,4.428s8.562-2.573,16.035-5.83Z" transform="translate(494.071 -1220.087)"/>
</svg>
