<svg xmlns="http://www.w3.org/2000/svg" width="202.313" height="182.555" viewBox="0 0 202.313 182.555">
  <path id="path876" d="M-357.829,1507.467c-4.481-1.6-6.454-3.2-8.755-7.119l-2.136-3.634-.206-73.271c-.184-65.3-.073-73.733,1.017-77.528a27.079,27.079,0,0,1,17.733-18.522c3.988-1.316,8.948-1.395,88.011-1.395,79.92,0,83.842.063,85.037,1.384,1.093,1.208,1.278,4.341,1.455,24.613l.2,23.228,3.328.568c5.77.984,5.456-.678,5.456,28.92,0,29.188.032,28.986-4.575,28.986-4.841,0-4.591-1.326-4.591,24.371,0,17.216-.243,23.688-.917,24.361-.574.574-3.429.917-7.638.917h-6.722v10.931c0,9.945-.141,11.082-1.557,12.6l-1.557,1.672-80.363-.035c-65.022-.029-80.908-.228-83.221-1.053Zm157.47-8.385c.568-.685.808-3.5.666-7.829l-.222-6.759-77.657-.194-77.657-.193-2.3,1.933c-2.906,2.446-3.608,5.486-2.1,9.095,2.18,5.218-2.139,4.956,82.281,4.99,64.35.029,76.235-.136,76.986-1.041Zm-70.973-23.373,86.694-.382v-41.247l-23.368-.2-23.368-.2-6.8-7.72c-13.179-14.956-17.115-19.836-17.115-21.22s2.812-4.786,14.985-18.1c3.5-3.825,7.028-7.778,7.841-8.783l1.48-1.829,23.378-.223,23.377-.222-.2-20.4-.2-20.4h-162.7l-3.6,2.118a19.82,19.82,0,0,0-8.675,10.293c-.822,2.3-1.029,15.134-1.056,65.246-.017,34.309.174,62.922.428,63.584.263.687.838.959,1.337.636.481-.313,39.887-.741,87.569-.951Zm96.064-70.844-.2-20.432-25.644-.2-25.644-.2-1.865,2.11c-1.026,1.16-5.039,5.7-8.919,10.077s-7.054,8.3-7.054,8.7c0,.78,7.7,9.753,14.05,16.371l3.847,4.01h51.636Zm-46.617,12.572c-3.277-1.053-7.24-4.51-8.267-7.213-1.047-2.754-.836-9.175.377-11.508,4.488-8.626,17.115-9.282,22.605-1.175,1.524,2.251,1.91,3.768,1.91,7.518,0,4-.327,5.127-2.2,7.584a13.292,13.292,0,0,1-14.424,4.793Zm7.208-9.444c2.773-2.51.576-7.9-3.221-7.9-2.428,0-5.512,3.492-4.9,5.551A4.993,4.993,0,0,0-214.679,1407.993Z" transform="translate(368.999 -1326)"/>
</svg>
