<svg xmlns="http://www.w3.org/2000/svg" width="202.313" height="192.293" viewBox="0 0 202.313 192.293">
  <path id="path876" d="M-169.145,1513.178c-10.26-7.187-22.641-17.873-35.178-30.365-13.332-13.284-23.892-25.809-23.892-28.338,0-1.909,1.989-3.588,4.251-3.588,1.636,0,3,1.3,8.045,7.657,7.138,9,21.362,23.535,31.6,32.29,8.637,7.388,20.566,16.644,21.449,16.644.582,0,1.757-.941,8.6-6.893,14.989-13.027,30.89-29.486,41.167-42.61,4.965-6.341,6.811-7.635,9.622-6.743,2.538.806,2.667,3.662.319,7.052-7.914,11.425-31.474,35.963-48.8,50.827-9.837,8.438-10.666,8.635-17.187,4.067Zm25.731-47.06a6,6,0,0,1-1.921-2.7c-.831-2.241-.947-2.641-8.134-28.1-2.811-9.961-5.412-18.41-5.779-18.777-.406-.405-3.945,5.883-9.036,16.058-8.763,17.514-9.75,18.784-12.943,16.665-.847-.562-4.5-5.389-8.122-10.725s-6.951-9.815-7.4-9.954-2.292,1.8-4.089,4.315-4.106,5.464-5.13,6.562l-1.862,1.995H-234.6c-25.01,0-26.846-.087-27.968-1.327-1.672-1.847-1.5-4.187.412-5.524,1.383-.969,5.14-1.129,26.4-1.129h24.789l5.884-8c3.236-4.4,6.375-8.192,6.974-8.422,2.722-1.044,4.449.595,10.8,10.25,3.548,5.392,6.813,9.781,7.255,9.754s4.886-8.271,9.874-18.32c8.835-17.8,9.129-18.276,11.382-18.495,2.8-.271,4.016,1.279,5.562,7.117.581,2.2,3.163,11.337,5.737,20.315s5.089,17.851,5.589,19.718c.557,2.08,1.245,3.264,1.777,3.06.477-.184,2.482-3.624,4.455-7.645s4.231-7.765,5.018-8.32c1.17-.824,7.33-1.008,33.757-1.008,28.083,0,32.538.147,33.938,1.129a3.537,3.537,0,0,1,.294,5.643c-1.173,1.061-4.753,1.214-32.467,1.382l-31.149.189-5.9,11.609c-3.248,6.384-6.281,12.016-6.74,12.515-.982,1.066-2.843,1.139-4.492.175Zm-102.793-42.656c-1.462-1.462-4.493-9.683-6.206-16.833-2.393-9.984-2.83-14.682-2.459-26.4.311-9.8.678-12.722,2.273-18.068,3.805-12.754,10.624-23.287,18.838-29.1,9.175-6.495,15.917-8.7,26.586-8.7,9.664,0,14.955,1.559,23.639,6.949,7.338,4.556,16.7,15.618,19.3,22.806.487,1.347,1.142,2.449,1.456,2.449s1.7-2.2,3.081-4.9c3.427-6.686,4.7-8.454,9.939-13.757,9.668-9.795,20-14.048,34.151-14.052,11.8,0,22.06,4.758,31.171,14.462,9.591,10.216,13.63,21.087,14.2,38.234.464,13.863-1.868,25.322-8.256,40.583-2.792,6.671-4.691,8.414-7.517,6.9-2.525-1.352-2.357-3.326,1-11.762,5.25-13.184,6.37-18.268,6.785-30.8.433-13.065-.566-18.787-4.807-27.556-4.777-9.876-12.915-17.318-22.45-20.53-5.02-1.691-15.842-2.049-20.8-.687-16.09,4.418-29.281,20.644-31.962,39.316-.59,4.109-1.834,5.587-4.7,5.587-2.5,0-3.193-1.088-4.212-6.6-4.858-26.281-26.335-43.279-48.1-38.074a39,39,0,0,0-21.169,14.034c-7.9,10.772-10.991,21.426-10.891,37.536.07,11.343,1.033,16.832,4.983,28.408a83.705,83.705,0,0,1,2.514,8.162c0,1.167-2.73,3.7-3.99,3.7a4.368,4.368,0,0,1-2.394-1.3Z" transform="translate(263.711 -1323.862)"/>
</svg>
