<svg xmlns="http://www.w3.org/2000/svg" width="112.393" height="225.583" viewBox="0 0 112.393 225.583">
  <path id="path872" d="M-245.222,1293.341c-1.6-1.925-1.279-3.853,3.548-21.424,2.5-9.116,6.355-23.125,8.558-31.129,3.823-13.893,5.862-21.364,7.28-26.682.356-1.335,1.78-6.526,3.164-11.535s2.517-9.649,2.517-10.309c0-1.021-2.449-1.2-16.45-1.2-14.909,0-16.575-.138-17.788-1.479a5.124,5.124,0,0,1-1.344-2.628c-.015-3.055,28.605-115.327,29.715-116.568,1.172-1.311,4.161-1.415,40.633-1.415,37.112,0,39.445.086,40.706,1.479a5.337,5.337,0,0,1,1.338,2.955c0,.812-8.145,14.428-18.1,30.257-23.173,36.849-24.738,39.441-24.158,40.021.265.266,9.315.483,20.111.483,19.367,0,19.645.031,20.887,1.8a6.842,6.842,0,0,1,1.259,2.787c0,.544-21.653,33.573-48.118,73.4-45.165,67.965-48.26,72.408-50.435,72.408a4.9,4.9,0,0,1-3.326-1.215Zm53.266-86.182c19.177-28.724,34.868-52.647,34.868-53.161,0-.684-5.329-.936-19.752-.936-21.212,0-22.293-.2-22.293-4.231,0-1.391,16.553-28.781,31.159-51.559q11.746-18.316,11.079-18.941c-.255-.254-14.422-.463-31.482-.463-28.794,0-31.059.1-31.568,1.415-1.21,3.122-25.732,102.159-25.381,102.51.207.208,7.617.377,16.466.377,9.544,0,16.725.34,17.653.837,2.722,1.457,2.425,2.89-9.287,44.845-5.729,20.521-8.554,31.239-8.554,32.455,0,1.262.141,1.3,1.113.263.612-.652,16.8-24.686,35.98-53.41Z" transform="translate(255.736 -1068.974)"/>
</svg>
