<svg xmlns="http://www.w3.org/2000/svg" width="225.662" height="182.555" viewBox="0 0 225.662 182.555">
  <path id="path878" d="M-186.491,1397.576c-20.572-3.6-40.04-12.856-51.249-24.357l-4.133-4.241-.193-21.631-.193-21.631-18.612-18.676c-15.648-15.7-18.612-19.056-18.612-21.061,0-1.876,1.479-3.9,6.931-9.468,7.09-7.246,8.759-10.345,8.77-16.284.009-4.769,1.792-5.812,16.123-9.434,34.18-8.638,43.549-12.562,71.344-29.88,4.709-2.934,8.614-4.795,10.063-4.795,1.538,0,6.227,2.42,13.382,6.909,24.794,15.552,42.049,22.347,77.74,30.614a7.255,7.255,0,0,1,5.607,6.65c.009,5.787,1.694,8.913,8.755,16.253,5.385,5.6,6.945,7.747,6.945,9.567,0,1.961-3.134,5.475-19.043,21.352l-19.043,19.005.131,21.349.132,21.349-2.787,2.922c-11.031,11.567-33.273,22.282-52.8,25.433-9.363,1.511-30.771,1.541-39.263.053Zm36.243-9.939a88.644,88.644,0,0,0,25.3-6.734c5.643-2.483,13.261-7.025,13.261-7.906,0-.359-24.794-.652-55.1-.652-54.271,0-55.076.031-53.661,1.586a36.319,36.319,0,0,0,7,4.51c16.947,8.905,39.911,12.247,63.194,9.194Zm48.294-42.362-.224-16.325-64.423-.212c-50.992-.168-64.56,0-65.082.826-.794,1.25-.919,30.7-.133,31.485.3.3,29.7.552,65.319.552h64.768Zm19.606-43.2,16.469-16.544-5.146-5.192c-5-5.04-8.422-11.32-8.422-15.435,0-1.781,1.437-1.283-22.732-7.877-22.323-6.09-33.314-10.949-56.683-25.056-3.9-2.353-7.489-4.278-7.98-4.278s-5.672,2.847-11.512,6.328c-15.006,8.943-27.6,15.188-36.243,17.978-12.866,4.151-14.306,4.573-25.466,7.452-12.57,3.243-13.8,3.668-13.8,4.781a43.088,43.088,0,0,1-1.318,5.352c-1.032,3.548-2.5,5.789-6.761,10.3l-5.443,5.77,16.466,16.481,16.466,16.481H-98.817Zm-92.656,3.8a27.963,27.963,0,0,1-17.386-17.664c-5.615-18.657,11.027-37.479,30.033-33.966a24.523,24.523,0,0,1,14.021,7.154c3.941,3.762,5.862,7.125,7.427,13,1.494,5.606,1.408,7.576-.614,14.124-1.47,4.76-2.513,6.39-6.819,10.663-3.834,3.8-6.174,5.39-9.519,6.454a31.718,31.718,0,0,1-17.143.237Zm13.2-9.76c3.735-1.118,9.208-6.076,10.553-9.558,1.228-3.181,1-10.468-.412-13.173-6-11.493-22.248-12.43-28.912-1.669-1.9,3.063-2.356,4.759-2.356,8.7,0,7.448,3.866,13.094,10.611,15.5,4.016,1.432,6.256,1.474,10.517.2Z" transform="translate(279.483 -1216.118)"/>
</svg>
