<svg xmlns="http://www.w3.org/2000/svg" width="202.313" height="191.619" viewBox="0 0 202.313 191.619">
  <path id="path874" d="M-407.684,1623.372c-5.934-.839-13.312-3.045-35.035-10.472-10.141-3.468-19.171-6.476-20.065-6.685-1.55-.363-1.627-.173-1.627,3.99,0,6.889.761,6.644-20.659,6.644-17.423,0-18.463-.077-19.833-1.446-1.406-1.406-1.446-2.411-1.446-35.993,0-30.1.145-34.753,1.125-36.153,1.114-1.591,1.319-1.607,19.7-1.6,10.218,0,19.041.3,19.606.662s1.216,2.061,1.446,3.785l.419,3.135,14.823.464c14.851.465,18.99,1.013,24.75,3.282,4.016,1.582,13.752,7.6,17.992,11.117l3.333,2.767,14.8.224,14.8.224,2.73,2.084a13.658,13.658,0,0,1,3.747,4.519c.668,1.6,1.508,2.436,2.445,2.436.785,0,8.346-2.32,16.8-5.156,13.958-4.681,15.908-5.157,21.159-5.157,6.7,0,9.375.953,16.1,5.737,9.847,7,9.313,8.285-6.86,16.477-6.674,3.38-18.642,9.59-26.6,13.8-19.669,10.411-34.082,17.363-40.4,19.483-6,2.015-16.26,2.822-23.267,1.832Zm20.308-9.7c8.636-3,15.166-5.95,29.13-13.172,7.428-3.842,19.525-10.082,26.882-13.867,17.787-9.15,16.72-8.274,13.047-10.7-5.633-3.727-7.9-3.429-30.346,3.984-10.906,3.6-20.505,7.164-21.331,7.914-3.653,3.319-3.852,3.342-31.236,3.574-23.353.2-26.244.1-27.3-.956-1.647-1.647-1.519-5.178.222-6.11.884-.473,10.333-.749,25.705-.749,19.919,0,24.676-.191,26.352-1.057,2.544-1.316,3.143-2.777,2.087-5.1-1.228-2.7-4.5-3.239-19.527-3.243-7.433,0-13.7-.3-13.925-.668-.742-1.2-10.8-8.485-14.91-10.8-7.312-4.116-9.794-4.581-26.523-4.972l-15.366-.358v39.756l1.989.76c16.507,6.305,49.687,16.39,58.389,17.747,4.149.647,11.654-.246,16.658-1.982Zm-85.35-34.57v-29.863l-12.238-.2c-9.307-.15-12.379.028-12.824.724-.841,1.325-.764,57.96.08,58.8.391.391,5.915.625,12.835.542l12.148-.145Zm61.959-31.662a29.829,29.829,0,0,1-17.213-16.511c-2.41-5.859-2.41-16.091,0-21.95,4.61-11.209,14.856-17.948,27.286-17.948a29.068,29.068,0,0,1,27.167,18.135c.994,2.429,1.3,5.105,1.292,11.15-.014,7.237-.2,8.332-2.057,12.146a31.7,31.7,0,0,1-14.151,13.806c-4.142,1.962-5.618,2.269-11.614,2.409C-405.344,1548.8-407.812,1548.517-410.767,1547.442Zm18.8-8.09c3.99-1.716,8.771-6.583,10.75-10.943.96-2.115,1.375-4.666,1.375-8.453,0-6.45-1.377-9.992-5.715-14.7-12.817-13.9-36.42-4.386-36.451,14.7C-422.033,1535.507-406.437,1545.577-391.969,1539.353Zm-11.385-8.129c-1.215-.888-1.437-2.11-1.65-9.115a77.969,77.969,0,0,1,.22-10.578c.583-3.106,3.086-4.517,5.812-3.275l1.808.823v10.836c0,9.974-.112,10.9-1.4,11.585a3.845,3.845,0,0,1-4.79-.276Zm39.082-41.627c-10.05-1.478-19.408-10.2-22.8-21.246a33.072,33.072,0,0,1-.556-9.039c.407-8.356,2.611-13.166,8.826-19.26,6.335-6.212,10.6-7.864,20.323-7.875,6.311,0,7.762.238,11.411,1.917,5.349,2.463,12.04,8.84,14.459,13.781,2.764,5.645,3.842,12.379,2.807,17.536-2.555,12.723-11.954,22.271-23.843,24.218-4.542.743-5.368.741-10.625-.033Zm15.274-9.78c7.535-3.686,12.586-12.828,11.522-20.85-1.109-8.358-6.723-15.674-13.907-18.122-9.7-3.3-21.029.878-25.717,9.491-2.78,5.109-3.6,9.472-2.637,14.1,2.985,14.391,17.707,21.757,30.739,15.382Zm-12.559-7.7c-.634-.634-.9-3.95-.9-11.223,0-10.158.028-10.342,1.772-11.484,2.239-1.467,4.595-.782,5.5,1.6,1.021,2.687.833,17.625-.249,19.776-1.027,2.042-4.63,2.827-6.122,1.334Z" transform="translate(506.35 -1432.178)"/>
</svg>
