<svg xmlns="http://www.w3.org/2000/svg" width="182.588" height="191.619" viewBox="0 0 182.588 191.619">
  <path id="path874" d="M-386.315,1628.516c-.569-.685-1.1-4.167-1.314-8.605l-.359-7.455h-2.352a8.215,8.215,0,0,1-4.016-1.165l-1.663-1.165v-29.008c0-32.823.1-33.532,5.5-39.406a30.663,30.663,0,0,1,7.223-5.476l4.115-2.1.5-4.43c.277-2.437.871-9.987,1.32-16.778,2.24-33.821,2.571-35.489,8.075-40.72,4.813-4.574,16.253-9.87,26.967-12.485,4.355-1.062,4.292-.97,10.03-14.718,1.249-2.991,2.888-5.77,3.642-6.173.8-.429,10.045-.734,22.29-.734,18.843,0,21.07.13,22.443,1.309.838.721,3.186,5.182,5.217,9.915,3.639,8.48,3.735,8.615,6.6,9.236,5.662,1.228,19.248,5.834,23.4,7.934,5.962,3.017,10.829,7.564,12.629,11.8a35.888,35.888,0,0,1,1.988,10.691c.256,3.91.788,10.813,1.181,15.34s1.114,13.172,1.6,19.211l.885,10.98,3.43,1.31a25.37,25.37,0,0,1,7.3,5.185c6.15,6.15,6.243,6.754,6.243,40.432,0,31.988.318,30.193-5.49,30.968l-3.115.416-.205,7.483c-.163,5.947-.461,7.675-1.453,8.418-1.732,1.3-30.2,1.333-31.492.037-.564-.564-.9-3.415-.909-7.67-.006-3.725-.28-7.2-.609-7.713-.472-.743-10.661-.9-48.441-.748l-47.843.192-.205,7.483c-.163,5.946-.461,7.675-1.452,8.417-.9.675-5.358.935-15.979.935-12.343,0-14.886-.187-15.686-1.15Zm25.011-8.264c.647-1.686.541-5.752-.179-6.886-.452-.712-2.822-.906-9.155-.748l-8.546.212-.234,3.266c-.386,5.376-.447,5.34,9.11,5.34,7.105,0,8.625-.2,9-1.184Zm130.658-3.33v-4.514l-8.793.209-8.792.209-.234,3.266c-.386,5.381-.456,5.34,9.19,5.34h8.629Zm-113.367-39.38v-26.309l-2.324-2.875c-4.4-5.447-5.82-5.868-19.751-5.868-13.9,0-15.471.439-19.23,5.365l-2.1,2.748-.214,26.822-.214,26.823,21.915-.2,21.915-.2Zm-26.382,7.992c-8.365-1.984-14.206-11.673-12.166-20.178,2.032-8.468,7.979-13.092,16.847-13.1,5.705,0,8.32,1,11.871,4.549,3.655,3.655,4.572,6.134,4.562,12.329-.008,4.918-.283,6.111-2.018,8.731C-355.7,1584.524-362.744,1587.35-370.394,1585.534Zm8.529-8.723c3.078-1.46,4.757-4.391,4.757-8.3,0-9-12.937-11.683-16.825-3.49-1.525,3.212-1.425,5.42.38,8.38a10.607,10.607,0,0,0,7.727,4.605,11.677,11.677,0,0,0,3.961-1.194Zm35.437,17.932c0-10.2.674-12.232,4.045-12.208,3.479.028,3.792.875,4.187,11.371l.374,9.944,4.3.223,4.3.224v-9.225c0-7.138.264-9.6,1.165-10.887,1.312-1.874,4.887-2.266,6.2-.68.47.567.906,5.092,1.027,10.663l.211,9.679h8.979l.374-9.881c.221-5.842.719-10.225,1.218-10.722a4.291,4.291,0,0,1,2.976-.6c3.269.377,4.013,2.741,4.026,12.78l.011,8.793h8.979V1592.2c0-14.708-.319-15.541-7.25-18.947-12.231-6.011-34.171-5.984-47.169.059-6.578,3.058-6.94,4.022-6.94,18.491v12.419h8.979Zm104.6-17.029c-.24-29.742.1-27.888-6.121-32.927-2.8-2.263-2.893-2.282-13.424-2.554-12.212-.316-15.767.375-19.7,3.831-4.688,4.117-4.743,4.489-4.743,32.694v25.467h44.2Zm-26.484,7.728a18.323,18.323,0,0,1-6.275-3.46,17.34,17.34,0,0,1,3.345-28.5c3.7-2,11.98-1.684,16.071.612,8.651,4.853,11.131,16.551,5.3,25.02C-233.524,1584.427-241.274,1587.088-248.31,1585.443Zm8.41-8.628c3.551-1.685,4.764-3.729,4.764-8.025,0-3.264-.307-3.963-2.759-6.275-2.557-2.412-3.033-2.576-6.5-2.242-3.007.289-4.158.823-5.846,2.713a9.113,9.113,0,0,0,2.723,13.889C-244.58,1578.326-243.058,1578.314-239.9,1576.815Zm-91.267-11.064c7.24-3.621,12.322-4.491,26.439-4.523,11.709-.028,13.688.156,18.7,1.729a70.42,70.42,0,0,1,8.433,3.2c3.458,1.764,3.38,1.941,3.714-8.33.226-6.952.5-8.3,2.379-11.731a20.108,20.108,0,0,1,9.77-9.541c3.638-1.842,3.654-1.865,1.732-2.6-2.676-1.017-11.423-2.771-20.726-4.155-10.48-1.558-35.252-1.561-45.757,0-8.828,1.308-22.338,3.958-23.341,4.579-.366.226,1.333,1.717,3.775,3.313,7.685,5.022,10.616,11.449,10.632,23.315.006,3.6.15,6.547.322,6.547a37.827,37.827,0,0,0,3.928-1.808Zm-34.828-35.279c3-1.069,7.2-2.3,14.125-4.149,5.721-1.524,21.486-4.457,27.953-5.2,7.386-.848,31.767-1.064,38.578-.341a194.178,194.178,0,0,1,35.446,7.286c5.671,1.667,10.426,2.9,10.568,2.741s-.206-6.352-.772-13.76-1.336-17.928-1.71-23.378c-.547-7.964-.99-10.408-2.254-12.454-7.135-11.545-38.82-19.036-71.639-16.935-29.482,1.887-50.16,10.382-51.406,21.12-.205,1.767-.747,8.263-1.205,14.436s-1.2,15.335-1.64,20.36c-.716,8.089-.6,11.442.381,11.442.167,0,1.777-.526,3.578-1.168Zm80.327-75.906a40.667,40.667,0,0,0-1.862-5.051l-1.4-3.18h-35.058l-1.969,4.539a42.383,42.383,0,0,0-1.969,5.051c0,.283,9.612.512,21.36.512h21.36Z" transform="translate(396.02 -1438.104)"/>
</svg>
