<svg xmlns="http://www.w3.org/2000/svg" width="230.63" height="225.583" viewBox="0 0 230.63 225.583">
  <path id="path872" d="M-380.072,1294.68c-2.937-3.246-.8-6.8,4.508-7.512l3.633-.485.229-12.777c.187-10.418.478-13.052,1.575-14.264,1.207-1.333,2.987-1.488,17.185-1.488,12.362,0,16.191.256,17.444,1.172,1.453,1.061,1.63,2.434,1.869,14.5l.264,13.325,9.659-.231,9.659-.231.413-32.487c.352-27.668.6-32.6,1.654-33.271.682-.43,8.544-.789,17.471-.8,12.958,0,16.425.221,17.2,1.151.7.844.951,9.482.911,31.416-.031,16.638.182,31.2.471,32.351l.527,2.1,9.62-.231,9.62-.231.213-51.211c.192-46.207.346-51.358,1.575-52.716s2.951-1.5,17.725-1.5c15.972,0,16.394.044,17.65,1.838,1.131,1.615,1.287,8.028,1.287,52.948v51.111l9.716-.231,9.716-.234.211-70.641c.193-64.29.334-70.776,1.575-72.148s2.928-1.507,17.2-1.507c11.384,0,16.237.291,17.255,1.036,1.318.964,1.416,5.859,1.405,70.494-.006,38.2.215,70.3.492,71.319.41,1.516,1.087,1.86,3.655,1.86a7.329,7.329,0,0,1,4.452,1.3c1.538,1.538,1.712,5.4.307,6.8-.762.762-27.2.992-113.986.992-108.416,0-113.049-.063-114.362-1.512Zm37.083-17.506v-9.51l-9.716-.231-9.716-.231v19.951l9.716-.231,9.716-.231Zm57.884-19.432V1228.8h-19.019l-.217,29.175-.217,29.175,9.727-.234,9.727-.234Zm57.884-19.019v-47.961h-19.019l-.213,48.194-.214,48.194,9.723-.234,9.723-.234Zm57.884-19.432V1151.9l-9.716-.231-9.716-.231v135.718l9.716-.231,9.716-.232Zm-186.467-21.5c-1.91-1.91-2.075-3.276-.62-5.149.569-.732,37.407-25.572,81.864-55.2s80.831-54.178,80.831-54.558-3.256-1.1-7.236-1.6c-20.7-2.611-20.88-2.668-20.88-6.7,0-4.076,1.574-4.568,11.021-3.444,4.626.551,11.946,1.391,16.267,1.869,13.044,1.441,17.634,2.317,18.927,3.609,1.091,1.091.967,3.479-1.086,20.892-1.274,10.813-2.694,20.688-3.155,21.944a4.359,4.359,0,0,1-6.44,2.251c-1.756-.939-1.807-1.29-1.248-8.546.321-4.161.924-9.385,1.341-11.606.821-4.381,1.026-12.084.322-12.084-.24,0-37.484,24.746-82.765,54.99s-83.04,54.989-83.909,54.989a5.66,5.66,0,0,1-3.234-1.654Z" transform="translate(381.397 -1070.615)"/>
</svg>
