<svg xmlns="http://www.w3.org/2000/svg" width="182.478" height="182.555" viewBox="0 0 182.478 182.555">
  <path id="path876" d="M-476.812,1501.975c-.992-1.1-1.117-2.037-.79-5.935.78-9.307,8.156-20.417,16.852-25.383l3.386-1.934-2.62-2.847a23.8,23.8,0,0,1-6.184-11.908c-1.893-9.026,3.3-19.156,12.256-23.893,2.938-1.555,3.974-1.732,10.144-1.732,6.574,0,7.032.094,10.583,2.146a22.67,22.67,0,0,1,9.5,10.149c1.51,2.933,1.762,4.243,1.8,9.335.039,5.494-.12,6.245-2.2,10.35a24.2,24.2,0,0,1-4.09,5.978,5.969,5.969,0,0,0-1.831,2.085c.007.293,1.507,1.416,3.333,2.5a36,36,0,0,1,9.6,8.418l1.428,1.874,4.1-4.221a42.608,42.608,0,0,1,7.374-6.081c1.8-1.023,3.387-1.947,3.528-2.053s-.851-1.417-2.2-2.913c-5.161-5.713-7.427-14.419-5.567-21.391,1.834-6.873,7.819-13.336,14.364-15.51a11.975,11.975,0,0,0,3.625-1.652c.191-.309-1.057-.751-2.774-.984a53.851,53.851,0,0,1-33.889-18.443c-4.183-5.041-9.469-15.4-11.117-21.795-1.5-5.8-2-16.655-1.015-21.757,3.052-15.768,11.551-28.336,24.277-35.9a53.569,53.569,0,0,1,80.117,34.3c1.827,8.109,1.07,20.708-1.7,28.264-7.071,19.3-22.915,32.044-43.925,35.341-1.35.213-2.454.6-2.454.874s1.693,1.055,3.763,1.745c2.947.983,4.688,2.184,8.026,5.535,5.555,5.577,6.81,8.891,6.4,16.912-.322,6.344-1.575,9.517-5.46,13.817a10.483,10.483,0,0,0-2.262,3.229c0,.4,1.252,1.361,2.781,2.138a38.381,38.381,0,0,1,7.182,5.882l4.4,4.47,3.426-3.622a43.564,43.564,0,0,1,7.216-5.962c2.084-1.286,3.79-2.631,3.79-2.987a3.486,3.486,0,0,0-1.152-1.707c-4.647-4.268-6.861-9.663-6.881-16.765-.012-4.4.279-5.856,1.828-9.129a24.232,24.232,0,0,1,10.6-10.91c2.7-1.343,4.084-1.557,10.034-1.557,6.722,0,7,.059,10.709,2.29a24.3,24.3,0,0,1,9.653,10.382c1.223,2.5,1.485,4.128,1.491,9.252.005,5.52-.2,6.6-1.8,9.677a34.542,34.542,0,0,1-4.071,5.969,17.5,17.5,0,0,0-2.268,2.828,22.084,22.084,0,0,0,3.86,2.7,35.142,35.142,0,0,1,15.479,22.393c1.232,5.886,1.2,6.57-.361,8.131-1.3,1.3-2.182,1.309-90.211,1.309-87.922,0-88.916-.025-90.081-1.3Zm173.439-8.351c-.972-5.245-6.513-12.963-12.071-16.814-2.98-2.066-10.2-4.291-13.915-4.291a33.129,33.129,0,0,0-12.14,3.182,30.569,30.569,0,0,0-11.967,12.22c-3.019,6.327-5.914,6.522-8.814.594-5.306-10.845-17.941-17.623-28.706-15.4a28.862,28.862,0,0,0-20.01,15.01c-1.135,2.248-2.494,4.252-3.021,4.455-1.955.75-3.94-.359-4.775-2.667-1.294-3.577-6.25-9.855-9.6-12.161a31.928,31.928,0,0,0-14.066-5.046c-7.073-.642-15.879,3.1-21.059,8.953-2.965,3.349-7.379,12.047-6.834,13.467.318.828,11.348.953,83.9.953h83.535Zm-132.775-29.967a14.927,14.927,0,0,0,7.187-9.124,10.591,10.591,0,0,0,.329-7.089,16.937,16.937,0,0,0-7.8-10.737c-2.443-1.432-3.815-1.761-7.335-1.761-4.97,0-7.974,1.174-11.043,4.313a15.515,15.515,0,0,0-4.666,11.452c0,3.433.307,4.422,2.323,7.483,3.748,5.688,8.53,8.038,15.019,7.379a17.715,17.715,0,0,0,5.985-1.916Zm56.434.623c3.036-1.515,7.118-6.4,7.965-9.536.882-3.264.484-8.834-.793-11.105a18.251,18.251,0,0,0-11.476-8.716c-5.686-1.227-12.732,2.114-16.141,7.655-1.607,2.611-1.917,3.815-1.939,7.527-.045,7.673,4.323,13.4,11.667,15.285A21.088,21.088,0,0,0-379.714,1464.28Zm58-.568c5.267-3.075,7.525-7.109,7.525-13.444,0-6.452-2.236-10.351-7.813-13.619-2.338-1.37-3.753-1.7-7.237-1.7-5.114,0-7.844,1.127-11.26,4.646-7.089,7.3-5.627,18.449,3.175,24.217,3.841,2.517,11.21,2.472,15.609-.1Zm-60.777-49.6c4.225-6.789,5.535-9.375,5.014-9.9-.226-.225-4.484-.41-9.463-.41-7.336,0-9.053.175-9.053.918,0,2.1,8.027,14.789,9.357,14.787.433,0,2.3-2.431,4.145-5.4Zm-14.811,3.375a6.84,6.84,0,0,0-1.227-2.454,71.212,71.212,0,0,1-3.608-6.482l-2.381-4.744h-7.845c-9.435,0-9.717.389-3.764,5.205C-408.847,1414.9-397.3,1420.1-397.3,1417.483Zm31.086-2.534c4.871-2.461,13.416-9.177,13.416-10.545,0-.334-3.6-.6-8.091-.6h-8.091l-2.152,4.417c-1.184,2.43-2.649,5.154-3.256,6.053a16.614,16.614,0,0,0-1.55,2.87c-.4,1.107-.195,1.193,2.021.843A37.408,37.408,0,0,0-366.218,1414.949Zm-41.33-18.184a6.926,6.926,0,0,0-.577-3.055,80.14,80.14,0,0,1-1.965-8.506c-.6-3.269-1.188-6.3-1.315-6.728-.247-.843-19.457-1.555-20.722-.769-1.563.971,2.621,15.161,5.523,18.732C-425.864,1397.349-408.1,1397.652-407.548,1396.765Zm34.706-1.708c1.318-3.154,3.679-13.052,3.679-15.422v-2.01h-35.463l.432,3.436a78.675,78.675,0,0,0,2.371,9.816l1.939,6.381h26.122Zm27.481-.908c3.5-6.914,5.41-16.964,3.194-16.786-.45.034-5.062.109-10.248.164l-9.43.1-.793,4.745c-.436,2.61-1.346,6.69-2.023,9.069a42.681,42.681,0,0,0-1.23,5.072c0,.525,2.809.747,9.478.747h9.478Zm-66.364-24.989a12.687,12.687,0,0,0,.706-4.417,36.158,36.158,0,0,1,.668-6.1c.352-1.62.819-4.049,1.039-5.4l.4-2.454H-427.48l-1.658,3.621c-1.854,4.05-3.9,13.376-3.291,14.974.339.885,1.853,1.039,10.213,1.039C-413.183,1370.426-412.348,1370.325-411.724,1369.16Zm43,.223c.571-1.489-.822-10.595-2.256-14.745l-1.216-3.519-14.462-.176-14.462-.176-1.119,3.369c-1.65,4.966-2.961,15.182-2.027,15.789.408.265,8.482.485,17.941.491,15.137,0,17.248-.114,17.6-1.032Zm27.587-1.535c.266-2.793-.822-6.9-3.352-12.639l-1.946-4.417h-18.313l.482,2.126a91.282,91.282,0,0,1,2.025,11.944,44.4,44.4,0,0,0,.641,4.761c.2.64,2.6.793,10.255.655l9.994-.181Zm-62.014-29.326c1.53-2.79,3.376-5.878,4.1-6.864,2.3-3.121.478-3.119-7.093,0-5.018,2.072-13.4,8.143-14.765,10.695-.63,1.176-.3,1.233,7.157,1.233h7.817Zm27.442,4.712c0-2.108-9.4-15.347-10.894-15.347-1.636,0-10.7,12.4-10.7,14.635,0,.949,1.234,1.072,10.8,1.072,5.939,0,10.8-.161,10.8-.36Zm22.906-.158c0-.84-5.3-5.662-8.819-8.031-5.161-3.469-13.432-6.439-13.432-4.822a18.433,18.433,0,0,0,1.837,3.109c1.01,1.5,2.7,4.428,3.763,6.5l1.926,3.761h7.363C-356.114,1343.593-352.8,1343.36-352.8,1343.076Z" transform="translate(477.764 -1320.721)"/>
</svg>
