<?xml version="1.0" standalone="no"?>
<!DOCTYPE svg PUBLIC "-//W3C//DTD SVG 20010904//EN"
 "http://www.w3.org/TR/2001/REC-SVG-20010904/DTD/svg10.dtd">
<svg version="1.0" xmlns="http://www.w3.org/2000/svg"
 width="83.000000pt" height="80.000000pt" viewBox="0 0 83.000000 80.000000"
 preserveAspectRatio="xMidYMid meet">

<g transform="translate(0.000000,80.000000) scale(0.100000,-0.100000)"
fill="#000000" stroke="none">
<path d="M500 755 c0 -8 8 -15 18 -15 10 0 23 -5 30 -12 9 -9 15 -9 23 -1 8 8
3 15 -19 27 -39 20 -52 20 -52 1z"/>
<path d="M578 724 c-10 -9 26 -84 40 -84 16 0 15 15 -4 56 -16 33 -25 40 -36
28z"/>
<path d="M420 680 c19 -4 31 -9 25 -10 -5 -2 8 -6 30 -9 l40 -6 0 -95 0 -95
-95 0 -95 0 -5 50 c-3 29 -10 51 -17 53 -15 2 -17 -14 -3 -23 6 -3 10 -12 10
-18 0 -7 -4 -6 -10 3 -7 11 -10 5 -10 -22 0 -64 23 -78 133 -78 123 0 127 4
127 132 0 119 -8 129 -101 127 -54 -1 -59 -3 -29 -9z"/>
<path d="M590 449 c-14 -27 -33 -45 -56 -55 -35 -15 -47 -44 -18 -44 47 0 114
70 114 120 0 32 -18 23 -40 -21z"/>
<path d="M217 474 c7 -3 10 -11 7 -18 -3 -8 1 -20 9 -27 7 -8 13 -18 13 -24 1
-14 63 -55 85 -55 28 0 23 27 -5 34 -26 6 -86 52 -85 64 3 21 -3 32 -18 31
-10 0 -13 -3 -6 -5z"/>
<path d="M210 209 c0 -22 -5 -29 -20 -29 -12 0 -24 10 -30 23 l-9 22 0 -22
c-1 -30 -41 -32 -48 -3 -7 27 -37 22 -41 -8 -4 -26 -17 -29 -31 -4 -9 15 -10
15 -11 -5 0 -18 6 -23 25 -23 18 0 25 5 25 19 0 11 5 23 10 26 6 3 10 -3 10
-14 0 -20 6 -21 90 -21 82 0 90 2 90 19 0 12 -12 26 -30 35 -30 14 -30 14 -30
-15z m45 -10 c10 -15 -1 -23 -20 -15 -9 3 -13 10 -10 16 8 13 22 13 30 -1z"/>
<path d="M488 233 c7 -3 16 -2 19 1 4 3 -2 6 -13 5 -11 0 -14 -3 -6 -6z"/>
<path d="M541 208 c-1 -38 -1 -38 39 -38 36 0 40 3 40 25 0 14 -4 25 -10 25
-5 0 -10 -9 -10 -21 0 -34 -43 -21 -51 16 -6 29 -7 29 -8 -7z"/>
<path d="M631 208 l-1 -38 90 0 c89 0 90 0 90 25 0 14 -4 25 -10 25 -5 0 -10
-9 -10 -20 0 -31 -67 -29 -80 3 l-9 22 0 -23 c-1 -19 -6 -23 -28 -20 -22 2
-29 10 -34 33 -6 29 -7 29 -8 -7z"/>
<path d="M422 200 c0 -19 2 -27 5 -17 2 9 2 25 0 35 -3 9 -5 1 -5 -18z"/>
<path d="M286 205 c-3 -8 1 -21 9 -29 11 -11 12 -16 2 -19 -7 -3 -5 -6 5 -6 9
-1 20 4 23 9 3 6 22 10 41 10 31 0 34 3 33 28 -2 23 -2 24 -6 5 -6 -31 -63
-34 -63 -3 0 24 -35 28 -44 5z m21 -17 c-3 -8 -6 -5 -6 6 -1 11 2 17 5 13 3
-3 4 -12 1 -19z"/>
<path d="M510 203 c0 -27 -24 -30 -40 -5 -10 15 -10 15 -8 -3 2 -14 12 -21 36
-23 33 -3 41 9 22 38 -8 12 -10 11 -10 -7z"/>
<path d="M471 64 c-1 -41 17 -63 40 -48 17 10 9 46 -10 51 -11 3 -22 12 -24
22 -3 9 -5 -3 -6 -25z m39 -25 c0 -5 -7 -9 -15 -9 -15 0 -20 12 -9 23 8 8 24
-1 24 -14z"/>
<path d="M32 57 c-16 -45 -15 -49 7 -35 15 9 23 9 35 -1 19 -16 20 -6 5 38
-14 40 -32 40 -47 -2z"/>
<path d="M100 56 c0 -25 5 -35 20 -39 23 -6 45 16 36 38 -3 8 -12 15 -21 15
-8 0 -15 5 -15 10 0 6 -4 10 -10 10 -5 0 -10 -15 -10 -34z m42 -11 c0 -5 -5
-11 -11 -13 -6 -2 -11 4 -11 13 0 9 5 15 11 13 6 -2 11 -8 11 -13z"/>
<path d="M268 73 c-8 -36 2 -54 30 -51 23 2 27 8 27 33 0 25 -4 31 -26 33 -19
2 -28 -2 -31 -15z m45 -5 c6 -19 -3 -38 -19 -38 -8 0 -14 10 -14 25 0 26 25
35 33 13z"/>
<path d="M340 55 c0 -19 5 -35 10 -35 6 0 10 9 10 20 0 27 18 25 23 -2 4 -20
4 -19 6 5 1 18 -4 27 -14 27 -8 0 -15 5 -15 10 0 6 -4 10 -10 10 -5 0 -10 -16
-10 -35z"/>
<path d="M590 57 c0 -39 14 -49 48 -36 18 7 23 15 20 36 -2 23 -8 29 -35 31
-32 3 -33 2 -33 -31z m53 11 c6 -19 -3 -38 -19 -38 -8 0 -14 10 -14 25 0 26
25 35 33 13z"/>
<path d="M737 75 c-6 -14 7 -65 17 -65 5 0 -1 71 -7 76 -3 3 -7 -2 -10 -11z"/>
<path d="M170 46 c0 -29 11 -39 34 -30 9 4 16 17 15 33 0 26 0 26 -10 3 -5
-13 -13 -20 -19 -17 -6 4 -8 10 -5 15 3 5 1 11 -5 15 -6 4 -10 -4 -10 -19z"/>
<path d="M413 43 c1 -16 6 -27 10 -25 4 1 12 2 17 2 6 0 10 11 10 25 0 18 -5
25 -19 25 -15 0 -19 -6 -18 -27z"/>
<path d="M542 45 c0 -17 2 -22 5 -12 2 9 2 23 0 30 -3 6 -5 -1 -5 -18z"/>
<path d="M679 68 c-11 -49 -4 -63 26 -52 21 8 16 48 -7 52 -10 2 -18 2 -19 0z"/>
<path d="M779 68 c-11 -49 -4 -63 26 -52 21 8 16 48 -7 52 -10 2 -18 2 -19 0z"/>
</g>
</svg>
